<?xml version="1.0" encoding="UTF-8"?>
<svg id="_图层_2" data-name="图层_2" xmlns="http://www.w3.org/2000/svg" viewBox="0 0 62.43 62.34">
  <defs>
    <style>
      .cls-1 {
        fill: #1d428a;
      }
    </style>
  </defs>
  <g id="_图层_1-2" data-name="图层_1">
    <g>
      <path class="cls-1" d="M58.18,15.43c-1.17,1-2.32,2.05-3.54,3-.65.51-.74.95-.38,1.71,2.09,4.35,2.73,8.97,2.29,13.73-.15,1.7-.61,3.37-.92,5.05-.12,0-.24,0-.36-.01-.14-.68-.3-1.36-.42-2.04-1.93-10.4-3.85-20.81-5.79-31.21-.07-.37-.22-.86-.49-1.03-1.61-.99-3.27-1.91-5.07-2.94v59.02c1.78-1.04,3.36-2,4.98-2.91.68-.38.87-.9.87-1.66-.03-4.5-.02-9.01-.02-13.51,0-.39.03-.79.05-1.18.1,0,.19,0,.29,0,.82,4.39,1.65,8.78,2.48,13.21,10.13-5.7,13.99-30.87,6.04-39.21Z"/>
      <path class="cls-1" d="M39.7,50.97v-4.93c-1.59,0-3.05.06-4.51-.02-.98-.05-1.22.32-1.21,1.24.05,2.71,0,5.42.02,8.13,0,.65-.12,1.08-.89,1.07-2.06-.01-4.11,0-6.31,0v-1.59c0-5.82,0-11.64,0-17.46,0-1.06-.29-2.52.27-3.07.57-.56,2.02-.25,3.09-.26,1.86-.03,3.72,0,5.7,0,0-1.73-.03-3.28.01-4.82.02-.74-.28-.98-.98-.97-1.36.03-2.72,0-4.08,0-1.31,0-2.62,0-3.97,0V5.87c2.07,0,4.09,0,6.11,0,.83,0,1.07.43,1.05,1.22-.04,2.03-.01,4.07-.01,6.1,0,1.02,0,2.04,0,3.09h5.7c0-4.83.02-9.57-.04-14.31,0-.29-.52-.73-.87-.83-5.59-1.52-11.19-1.48-16.81-.04-.69.18-.88.46-.88,1.13.01,19.29.01,38.59,0,57.88,0,.73.24,1.02.96,1.2,5.5,1.35,10.98,1.4,16.5.05.96-.24,1.19-.61,1.17-1.52-.05-2.95-.02-5.9-.02-8.85Z"/>
      <path class="cls-1" d="M17.2,2.02C9.28,6.33,3.22,12.12.31,20.86c1.82.62,3.55,1.2,5.34,1.81,1.43-3.37,3.11-6.47,5.89-8.97,0,2.18.04,4.35-.02,6.53-.02.64-.21,1.34-.54,1.88-3.54,5.78-7.13,11.52-10.67,17.3-.25.41-.39,1.06-.25,1.49,1.65,5,4.35,9.37,8.15,13.05,2.65,2.56,5.8,4.4,8.83,6.41.12-.14.16-.17.16-.19.02-5.42.05-10.83.04-16.25,0-.22-.39-.63-.6-.64-1.66-.05-3.33-.03-5.16-.03v5.77c-2.17-2.21-3.59-4.54-4.83-7.01-.38-.76-.36-1.32.11-2.06,3.35-5.33,6.65-10.69,9.93-16.07.35-.57.56-1.33.57-2,.04-6.22.03-12.43.02-18.65,0-.38-.04-.76-.06-1.21Z"/>
    </g>
  </g>
</svg>